<svg id="visual" viewBox="0 0 900 600" width="900" height="600" xmlns="http://www.w3.org/2000/svg" xmlns:xlink="http://www.w3.org/1999/xlink" version="1.1"><rect x="0" y="0" width="900" height="600" fill="#FFFFFF"></rect><path d="M583 0L545.7 20C508.3 40 433.7 80 395.8 120C358 160 357 200 389 240C421 280 486 320 476.7 360C467.3 400 383.7 440 367.2 480C350.7 520 401.3 560 426.7 580L452 600L0 600L0 580C0 560 0 520 0 480C0 440 0 400 0 360C0 320 0 280 0 240C0 200 0 160 0 120C0 80 0 40 0 20L0 0Z" fill="#20be5e" stroke-linecap="round" stroke-linejoin="miter"></path></svg>