<svg id="visual" viewBox="0 0 900 600" width="900" height="600" xmlns="http://www.w3.org/2000/svg" xmlns:xlink="http://www.w3.org/1999/xlink" version="1.1"><rect x="0" y="0" width="900" height="600" fill="#FFFFFF"></rect><path d="M567 0L575.2 12.5C583.3 25 599.7 50 579.3 75C559 100 502 125 487.5 150C473 175 501 200 525.5 225C550 250 571 275 554.3 300C537.7 325 483.3 350 464.8 375C446.3 400 463.7 425 450.8 450C438 475 395 500 419.2 525C443.3 550 534.7 575 580.3 587.5L626 600L0 600L0 587.5C0 575 0 550 0 525C0 500 0 475 0 450C0 425 0 400 0 375C0 350 0 325 0 300C0 275 0 250 0 225C0 200 0 175 0 150C0 125 0 100 0 75C0 50 0 25 0 12.5L0 0Z" fill="#20be5e" stroke-linecap="round" stroke-linejoin="miter"></path></svg>